<svg xmlns="http://www.w3.org/2000/svg" width="64" height="64" viewBox="0 0 64 64">
    <g fill="none" fill-rule="evenodd" stroke-width="2">
        <g fill-rule="nonzero">
            <path fill="#FFF" stroke="#333" d="M12.9 39.3c3.443 0 6.186-2.742 6.1-6.1 0-3.348-2.752-6.1-6.1-6.1s-6.1 2.752-6.1 6.1 2.752 6.1 6.1 6.1zM51.1 39.3c3.348 0 6.1-2.752 6.1-6.1s-2.752-6.1-6.1-6.1-6.1 2.752-6.1 6.1 2.752 6.1 6.1 6.1z"/>
            <path stroke="#398873" stroke-linecap="round" d="M20 63c0-6.316 5.395-11.5 12-11.5S44 56.684 44 63"/>
            <path stroke="#333" stroke-linecap="round" d="M1 57c0-6.59 5.395-12 12-12 3.773 0 7.151 1.765 9.354 4.507M63.004 57c0-6.59-5.395-12-12-12-3.772 0-7.15 1.765-9.354 4.507"/>
            <path fill="#FFF" stroke="#398873" d="M32 45.8c3.348 0 6.1-2.752 6.1-6.1s-2.752-6.1-6.1-6.1-6.1 2.752-6.1 6.1 2.752 6.1 6.1 6.1z"/>
        </g>
        <g stroke="#398873">
            <path fill="#FFF" d="M41.193 4.807c-5.077-5.076-13.308-5.076-18.385 0-5.077 5.077-5.077 13.309 0 18.385 5.077 5.077 13.308 5.077 18.385 0 5.076-5.076 5.076-13.308 0-18.385z"/>
            <path d="M25.412 14.833l4.11 4.108 9.066-9.059"/>
        </g>
    </g>
</svg>
