<svg xmlns="http://www.w3.org/2000/svg" width="64" height="64" viewBox="0 0 64 64">
    <g fill="none" fill-rule="evenodd" stroke-width="2">
        <path stroke="#333" d="M41.438 1.03l.004.002a.168.168 0 0 0-.014-.006zm-.05-.017A.363.363 0 0 0 41.3 1H22.4c.028 0-.01.03-.157.173l-6.666 15.756-.33.165c-.182.091-.268.132-.396.18-.214.08-.424.126-.651.126h-9A4.165 4.165 0 0 0 1 21.6v37.2C1 61.148 2.852 63 5.2 63h53.6c2.348 0 4.2-1.852 4.2-4.2V21.6c0-2.348-1.852-4.2-4.2-4.2h-9.2c-.227 0-.437-.046-.651-.126a3.694 3.694 0 0 1-.396-.18l-.327-.163-6.837-15.918zm8.26 14.387l.003.001c.006.003-.01-.001-.051-.001h.048z"/>
        <path stroke="#398873" d="M32 55c8.722 0 15.8-6.729 15.8-14.9 0-8.236-7.041-14.9-15.8-14.9s-15.8 6.664-15.8 14.9S23.241 55 32 55zM22 40.1c0-5.147 4.4-9.3 9.9-9.3"/>
        <path stroke="#333" d="M54.4 28.7c1.448 0 2.6-1.152 2.6-2.6 0-1.448-1.152-2.6-2.6-2.6a2.585 2.585 0 0 0-2.6 2.6c0 1.448 1.152 2.6 2.6 2.6z"/>
        <path stroke="#333" stroke-linecap="round" stroke-linejoin="round" d="M5 11.5h6.4"/>
        <path stroke="#333" stroke-linecap="square" stroke-linejoin="round" d="M22.1 17.4H42"/>
        <path stroke="#333" d="M25.3 5.7h13.5v5.5H25.3z"/>
    </g>
</svg>
