<svg xmlns="http://www.w3.org/2000/svg" width="64" height="64" viewBox="0 0 64 64">
    <g fill="none" fill-rule="evenodd" stroke-width="2">
        <path stroke="#231F20" d="M36 36H1V1h45v24.5M0 44h22M0 52h20M0 60h20"/>
        <g fill-rule="nonzero">
            <path fill="#FFF" stroke="#FFF" d="M35.499 44C31.377 44 28 40.623 28 36.5s3.377-7.5 7.499-7.5 7.499 3.377 7.499 7.474C43.104 40.613 39.717 44 35.499 44z"/>
            <path fill="#FFF" stroke="#333" d="M35.499 42c3.105 0 5.576-2.472 5.499-5.5 0-3.018-2.482-5.5-5.499-5.5C32.481 31 30 33.482 30 36.5s2.481 5.5 5.499 5.5z"/>
            <path stroke="#333" stroke-linecap="round" d="M42 63c0-5.492 4.72-10 10.5-10S63 57.508 63 63M25 58c0-6.041 4.8-11 10.677-11 3.357 0 6.363 1.618 8.323 4.132"/>
            <path fill="#FFF" stroke="#333" d="M52.5 48c3.018 0 5.5-2.482 5.5-5.5S55.518 37 52.5 37 47 39.482 47 42.5s2.482 5.5 5.5 5.5z"/>
        </g>
        <path fill="#FFF" stroke="#FFF" d="M61.046 9.954c5.272 5.272 5.272 13.82 0 19.092-5.272 5.272-13.82 5.272-19.091 0-5.273-5.272-5.273-13.82 0-19.092 5.271-5.272 13.82-5.272 19.091 0z"/>
        <path fill="#FFF" stroke="#398873" d="M59.632 11.368c-4.491-4.49-11.772-4.49-16.263 0-4.492 4.49-4.492 11.773 0 16.263 4.49 4.492 11.772 4.492 16.263 0 4.49-4.49 4.49-11.772 0-16.263z"/>
        <path stroke="#398873" d="M51.5 13.25v6.25l3.75 3.75"/>
    </g>
</svg>
