<svg xmlns="http://www.w3.org/2000/svg" width="64" height="64" viewBox="0 0 64 64">
    <g fill="none" fill-rule="evenodd">
        <path stroke="#231F20" stroke-width="2" d="M20.455 30H1V1h35v19M0 36h17.191M0 42h19.089M0 48h22"/>
        <path stroke="#231F20" stroke-linecap="round" stroke-width="2" d="M48.419 48.42L63 63"/>
        <path fill="#FFF" stroke="#FFF" stroke-width="2" d="M49.435 23.565c7.42 7.42 7.42 19.45 0 26.87-7.42 7.42-19.45 7.42-26.87 0-7.42-7.42-7.42-19.45 0-26.87 7.42-7.42 19.45-7.42 26.87 0z"/>
        <path fill="#FFF" stroke="#333" stroke-width="2" d="M48.021 24.979c-6.639-6.639-17.403-6.639-24.041 0-6.64 6.638-6.64 17.403 0 24.041 6.638 6.64 17.402 6.64 24.041 0 6.639-6.638 6.639-17.403 0-24.041z"/>
        <path fill="#54A446" fill-rule="nonzero" d="M35.705 50.19a12.67 12.67 0 0 0 12.71-13c0-.53 0-1.1-.07-1.66h-14.14v5h7.09a6.29 6.29 0 0 1-5.59 3.4 6.85 6.85 0 0 1-6.49-7.07 6.56 6.56 0 0 1 6.49-6.62 6.74 6.74 0 0 1 5.1 2.44h6.91A12.69 12.69 0 0 0 35.775 24a12.45 12.45 0 0 0-9 3.72 12.71 12.71 0 0 0-3.77 9.1 13.22 13.22 0 0 0 3.52 9.35 12.19 12.19 0 0 0 9.18 4.02z"/>
    </g>
</svg>
