<svg xmlns="http://www.w3.org/2000/svg" viewBox="0 0 64 64"><path fill="#333" d="M58.8 64H5.2C2.3 64 0 61.7 0 58.8V21.6c0-2.9 2.3-5.2 5.2-5.2h9c.2 0 .4-.1.6-.2L21.4.6c.3-.3.6-.6 1-.6h18.9c.4 0 .9.2 1 .6L49 16.2c.2.1.4.2.6.2h9.2c2.9 0 5.2 2.3 5.2 5.2v37.2c0 2.9-2.3 5.2-5.2 5.2zM5.2 18.4c-1.8 0-3.2 1.4-3.2 3.2v37.2C2 60.6 3.4 62 5.2 62h53.6c1.8 0 3.2-1.4 3.2-3.2V21.6c0-1.8-1.4-3.2-3.2-3.2h-9.2c-.8 0-1.6-.3-2.2-.9-.1-.1-.2-.2-.2-.3L40.8 2H23.1l-6.5 15.2c-.1.1-.1.2-.2.3-.6.6-1.3.9-2.2.9h-9zm6.1-6H5c-.6 0-1-.4-1-1s.4-1 1-1h6.3c.6 0 1 .4 1 1s-.5 1-1 1zm9.8 4H43v2H21.1v-2zm33.3 13.3c-2 0-3.6-1.6-3.6-3.6s1.6-3.6 3.6-3.6 3.6 1.6 3.6 3.6-1.6 3.6-3.6 3.6zm0-5.3c-.9 0-1.6.7-1.6 1.6s.7 1.6 1.6 1.6S56 26.9 56 26s-.7-1.6-1.6-1.6zM39.7 12.2H24.3V4.7h15.5l-.1 7.5zm-13.4-2h11.5V6.7H26.3v3.5z"/><path fill="#53A318" d="M32 56c-9.3 0-16.8-7.1-16.8-15.9S22.7 24.2 32 24.2s16.8 7.1 16.8 15.9C48.8 48.8 41.3 56 32 56zm0-29.8c-8.2 0-14.8 6.2-14.8 13.9C17.2 47.7 23.8 54 32 54s14.8-6.2 14.8-13.9S40.2 26.2 32 26.2zm-8.8 13.9h-2c0-5.7 4.8-10.3 10.8-10.3v2c-4.9 0-8.8 3.7-8.8 8.3z"/></svg>