<svg xmlns="http://www.w3.org/2000/svg" viewBox="0 0 64 64"><path fill="#333" d="M12.9 40.3c-3.9 0-7.1-3.2-7.1-7.1s3.2-7.1 7.1-7.1 7.1 3.2 7.1 7.1c.1 3.9-3.1 7.1-7.1 7.1zm0-12.2c-2.8 0-5.1 2.3-5.1 5.1s2.3 5.1 5.1 5.1S18 36 18 33.2s-2.2-5.1-5.1-5.1zm38.2 12.2c-3.9 0-7.1-3.2-7.1-7.1s3.2-7.1 7.1-7.1 7.1 3.2 7.1 7.1c0 3.9-3.2 7.1-7.1 7.1zm0-12.2c-2.8 0-5.1 2.3-5.1 5.1s2.3 5.1 5.1 5.1 5.1-2.3 5.1-5.1-2.3-5.1-5.1-5.1zM43.9 64c-.6 0-1-.4-1-1 0-5.6-4.9-10.2-10.9-10.2S21.1 57.4 21.1 63c0 .6-.4 1-1 1s-1-.4-1-1c0-6.7 5.8-12.2 12.9-12.2S44.9 56.3 44.9 63c0 .6-.4 1-1 1zM32 46.8c-3.9 0-7.1-3.2-7.1-7.1s3.2-7.1 7.1-7.1 7.1 3.2 7.1 7.1-3.2 7.1-7.1 7.1zm0-12.2c-2.8 0-5.1 2.3-5.1 5.1s2.3 5.1 5.1 5.1 5.1-2.3 5.1-5.1-2.3-5.1-5.1-5.1zM21.5 50.3c.5-.4 1.1-.8 1.7-1.1-2.4-2.9-6.1-4.9-10.3-4.9C5.8 44.3 0 49.8 0 56.5c0 .6.4 1 1 1s1-.4 1-1c0-5.6 4.9-10.2 10.9-10.2 3.5 0 6.7 1.6 8.6 4zm29.6-6c-4.2 0-7.9 1.9-10.3 4.9.6.3 1.1.7 1.7 1.1 2-2.4 5.1-4 8.6-4 6 0 10.9 4.6 10.9 10.2 0 .6.4 1 1 1s1-.4 1-1c0-6.7-5.8-12.2-12.9-12.2z"/><path fill="#53A318" d="M40.2 28.7c-.2 0-.3 0-.5-.1L32 24.3l-7.8 4.3c-.3.2-.7.2-1.1-.1-.3-.2-.5-.6-.4-1l1.5-9.2-6.3-6.5c-.3-.3-.4-.7-.2-1s.4-.6.8-.7l8.7-1.3L31.1.5c.2-.3.5-.5.9-.5s.7.2.9.6l3.9 8.3 8.7 1.3c.4.1.7.3.8.7s0 .7-.2 1l-6.3 6.5 1.5 9.2c.1.4-.1.8-.4 1-.2.1-.4.1-.7.1zM32 22.2c.2 0 .5.1.7.2l6.2 3.4-1.2-7.4c-.1-.5.1-.9.4-1.3l5.2-5.3-7.1-1.1c-.5-.1-.9-.4-1.1-.8L32 3.4 28.9 10c-.2.4-.6.8-1.1.8l-7.1 1.1 5.2 5.3c.3.3.5.8.4 1.3l-1.2 7.4 6.2-3.4c.2-.2.5-.3.7-.3z"/></svg>