<svg xmlns="http://www.w3.org/2000/svg" width="64" height="64" viewBox="0 0 64 64">
    <g fill="none" fill-rule="evenodd">
        <path fill="#FFF" d="M0 0h64v64H0z"/>
        <path stroke="#231F20" stroke-width="2" d="M33 36H1V1h44v29M0 44h29M0 52h36M0 60h40"/>
        <path fill="#FFF" stroke="#FFF" stroke-width="2" d="M59.728 34.272c7.03 7.029 7.03 18.427 0 25.455-7.029 7.03-18.426 7.03-25.455 0-7.03-7.028-7.03-18.426 0-25.455 7.029-7.03 18.426-7.03 25.455 0z"/>
        <g stroke="#398873" stroke-width="2">
            <path fill="#FFF" d="M58.314 35.686c-6.248-6.248-16.379-6.248-22.627 0-6.25 6.248-6.25 16.38 0 22.627 6.248 6.25 16.379 6.25 22.627 0 6.248-6.248 6.248-16.38 0-22.627z"/>
            <path d="M39 48.012L43.992 53 55 42"/>
        </g>
    </g>
</svg>
