<svg xmlns="http://www.w3.org/2000/svg" width="64" height="64" viewBox="0 0 64 64">
    <g fill="none" fill-rule="evenodd" stroke-width="2">
        <g stroke="#398873">
            <path d="M41.193 4.807c-5.077-5.076-13.308-5.076-18.385 0-5.077 5.077-5.077 13.309 0 18.385 5.077 5.077 13.308 5.077 18.385 0 5.076-5.076 5.076-13.308 0-18.385zM25.412 14.412h13.176M32 7.412v13.176"/>
        </g>
        <path fill="#FFF" fill-rule="nonzero" stroke="#333" d="M12.9 39.3c3.443 0 6.186-2.742 6.1-6.1 0-3.348-2.752-6.1-6.1-6.1s-6.1 2.752-6.1 6.1 2.752 6.1 6.1 6.1zM51.1 39.3c3.348 0 6.1-2.752 6.1-6.1s-2.752-6.1-6.1-6.1-6.1 2.752-6.1 6.1 2.752 6.1 6.1 6.1z"/>
        <path fill-rule="nonzero" stroke="#333" stroke-linecap="round" d="M20 63c0-6.316 5.395-11.5 12-11.5S44 56.684 44 63M1 57c0-6.59 5.395-12 12-12 3.773 0 7.151 1.765 9.354 4.507M63.004 57c0-6.59-5.395-12-12-12-3.772 0-7.15 1.765-9.354 4.507"/>
        <path fill="#FFF" fill-rule="nonzero" stroke="#333" d="M32 45.8c3.348 0 6.1-2.752 6.1-6.1s-2.752-6.1-6.1-6.1-6.1 2.752-6.1 6.1 2.752 6.1 6.1 6.1z"/>
    </g>
</svg>
