<svg width="66" height="66" viewBox="0 0 66 66" fill="none" xmlns="http://www.w3.org/2000/svg">
<path d="M25.5455 33H1V3H46V27.8571" stroke="#231F20" stroke-width="2"/>
<path fill-rule="evenodd" clip-rule="evenodd" d="M7 9H40V27H7V9Z" fill="url(#paint0_radial)"/>
<mask id="mask0" mask-type="alpha" maskUnits="userSpaceOnUse" x="7" y="9" width="33" height="18">
<path fill-rule="evenodd" clip-rule="evenodd" d="M7 9H40V27H7V9Z" fill="white"/>
</mask>
<g mask="url(#mask0)">
<path fill-rule="evenodd" clip-rule="evenodd" d="M0 40L38 9H0V40Z" fill="url(#paint1_linear)"/>
</g>
<path d="M0 40H22.9997" stroke="#231F20" stroke-width="2"/>
<path d="M0 47H18.9997" stroke="#231F20" stroke-width="2"/>
<path d="M37.9998 35.2001V35.2129L38.0001 35.2257C38.0851 38.5393 35.3621 41.3001 31.8998 41.3001C28.5521 41.3001 25.7998 38.5478 25.7998 35.2001C25.7998 31.8524 28.5521 29.1001 31.8998 29.1001C35.2475 29.1001 37.9998 31.8524 37.9998 35.2001Z" fill="white" stroke="#333333" stroke-width="2"/>
<path d="M39 65C39 58.6844 44.3953 53.5 51 53.5C57.6047 53.5 63 58.6844 63 65" stroke="#333333" stroke-width="2" stroke-linecap="round"/>
<path d="M20 59C20 52.4098 25.3953 47 32 47C35.7728 47 39.151 48.7653 41.3543 51.5074" stroke="#333333" stroke-width="2" stroke-linecap="round"/>
<path d="M51.0004 47.8001C47.6527 47.8001 44.9004 45.0478 44.9004 41.7001C44.9004 38.3524 47.6527 35.6001 51.0004 35.6001C54.3481 35.6001 57.1004 38.3524 57.1004 41.7001C57.1004 45.0478 54.3481 47.8001 51.0004 47.8001Z" fill="white" stroke="#333333" stroke-width="2"/>
<path d="M46.2221 19.7779C50.5177 24.074 57.4827 24.074 61.7783 19.7779C66.0739 15.4824 66.0739 8.51711 61.7783 4.22162C57.4827 -0.0738728 50.5178 -0.0738728 46.2222 4.22157C41.926 8.51705 41.9259 15.4824 46.2221 19.7779Z" fill="white" stroke="white" stroke-width="2"/>
<path d="M60.3641 18.3637L60.364 18.3638C56.8495 21.8787 51.151 21.8787 47.6364 18.3638L47.6363 18.3637C44.1212 14.8492 44.1212 9.15035 47.6363 5.6359L47.6363 5.63585C51.1509 2.12138 56.8495 2.12138 60.3641 5.63585C63.8786 9.15031 63.8786 14.8493 60.3641 18.3637Z" fill="white" stroke="#398873" stroke-width="2"/>
<path d="M49.5996 12.6976L52.5948 15.6L59.1996 9.19995" stroke="#398873" stroke-width="2"/>
<defs>
<radialGradient id="paint0_radial" cx="0" cy="0" r="1" gradientUnits="userSpaceOnUse" gradientTransform="translate(31.4302 19.2639) scale(30.0683 7.41707)">
<stop stop-color="#014F39"/>
<stop offset="1" stop-color="#002B1F"/>
</radialGradient>
<linearGradient id="paint1_linear" x1="23.1243" y1="30.4994" x2="40.2819" y2="10.7434" gradientUnits="userSpaceOnUse">
<stop stop-color="#002B1F"/>
<stop offset="1" stop-color="#398873"/>
</linearGradient>
</defs>
</svg>
