<svg xmlns="http://www.w3.org/2000/svg" viewBox="0 0 64 64"><path fill="#333" d="M7 6c.6 0 1 .4 1 1s-.4 1-1 1-1-.4-1-1 .4-1 1-1zm4 0c.6 0 1 .4 1 1s-.4 1-1 1-1-.4-1-1 .4-1 1-1zm4 0c.6 0 1 .4 1 1s-.4 1-1 1-1-.4-1-1 .4-1 1-1zM2 12V2h60v10h2V1c0-.6-.4-1-1-1H1C.4 0 0 .4 0 1v11h2zm60 4v46H2V16H0v47c0 .6.4 1 1 1h62c.6 0 1-.4 1-1V16h-2zM15.9 57.4C10.4 57.4 6 53 6 47.5s4.4-9.9 9.9-9.9 9.9 4.4 9.9 9.9-4.5 9.9-9.9 9.9zm0-17.7c-4.3 0-7.9 3.5-7.9 7.9s3.5 7.9 7.9 7.9 7.9-3.5 7.9-7.9-3.6-7.9-7.9-7.9zm13.8.8H58v2H29.7v-2zm0 6H58v2H29.7v-2zm0 6h14.1v2H29.7v-2z"/><path fill="#53A318" d="M58 33.1H6V16h52v17.1zm-50-2h48V18H8v13.1z"/></svg>